<?xml version="1.0" encoding="UTF-8" standalone="no"?>
<!-- Created with Inkscape (http://www.inkscape.org/) -->

<svg
   xmlns:dc="http://purl.org/dc/elements/1.1/"
   xmlns:cc="http://creativecommons.org/ns#"
   xmlns:rdf="http://www.w3.org/1999/02/22-rdf-syntax-ns#"
   xmlns:svg="http://www.w3.org/2000/svg"
   xmlns="http://www.w3.org/2000/svg"
   xmlns:sodipodi="http://sodipodi.sourceforge.net/DTD/sodipodi-0.dtd"
   xmlns:inkscape="http://www.inkscape.org/namespaces/inkscape"
   width="22"
   height="22"
   viewBox="0 0 5.8208332 5.8208335"
   version="1.1"
   id="svg846"
   inkscape:version="0.92.4 5da689c313, 2019-01-14"
   sodipodi:docname="updateOld.svgz">
  <defs
     id="defs840" />
  <sodipodi:namedview
     id="base"
     pagecolor="#ffffff"
     bordercolor="#666666"
     borderopacity="1.0"
     inkscape:pageopacity="0.0"
     inkscape:pageshadow="2"
     inkscape:zoom="5.6"
     inkscape:cx="28.169724"
     inkscape:cy="7.6913767"
     inkscape:document-units="px"
     inkscape:current-layer="layer1"
     showgrid="true"
     units="px"
     inkscape:window-width="1440"
     inkscape:window-height="835"
     inkscape:window-x="0"
     inkscape:window-y="0"
     inkscape:window-maximized="1"
     inkscape:snap-smooth-nodes="true"
     inkscape:snap-intersection-paths="true"
     inkscape:object-paths="true"
     inkscape:snap-midpoints="true">
    <inkscape:grid
       type="xygrid"
       id="grid1394" />
  </sodipodi:namedview>
  <metadata
     id="metadata843">
    <rdf:RDF>
      <cc:Work
         rdf:about="">
        <dc:format>image/svg+xml</dc:format>
        <dc:type
           rdf:resource="http://purl.org/dc/dcmitype/StillImage" />
        <dc:title></dc:title>
      </cc:Work>
    </rdf:RDF>
  </metadata>
  <style
     id="current-color-scheme"
     type="text/css">
      .ColorScheme-Text {
        color:#7B7C7E;
      }
      .ColorScheme-Background{
        color:#EFF0F1;
      }
      .ColorScheme-Highlight{
        color:#3DAEE6;
      }
      .ColorScheme-ViewText {
        color:#7B7C7E;
      }
      .ColorScheme-ViewBackground{
        color:#FCFCFC;
      }
      .ColorScheme-ViewHover {
        color:#3DAEE6;
      }
      .ColorScheme-ViewFocus{
        color:#1E92FF;
      }
      .ColorScheme-ButtonText {
        color:#7B7C7E;
      }
      .ColorScheme-ButtonBackground{
        color:#EFF0F1;
      }
      .ColorScheme-ButtonHover {
        color:#3DAEE6;
      }
      .ColorScheme-ButtonFocus{
        color:#1E92FF;
      }
     .ColorScheme-NegativeText {
            color:#da4453;
        }
      .ColorScheme-NeutralText {
        color:#f67400;
      }
</style>
  <g
     inkscape:label="Layer 1"
     inkscape:groupmode="layer"
     id="layer1"
     transform="translate(0,-291.17915)">
    <g
       id="22-22-update-none">
      <rect
         ry="1.2988289e-06"
         y="291.17914"
         x="0"
         height="5.8208332"
         width="5.8208332"
         id="rect1396"
         style="opacity:0.003;fill:#000000;fill-opacity:1;stroke:none;stroke-width:0.10794999;stroke-miterlimit:4;stroke-dasharray:none;stroke-opacity:1" />
      <path
         inkscape:connector-curvature="0"
         id="path5"
         d="m 2.9104167,291.9729 a 2.1166667,2.1166667 0 0 0 -1.94148356,1.27899 l 0.20360516,0.20361 a 1.8520833,1.8520833 0 0 1 1.7378784,-1.21802 1.8520833,1.8520833 0 0 1 1.79989,1.42576 l -0.2899048,-0.28991 -0.1870686,0.18707 0.5291667,0.52917 0.2475301,0.24753 a 2.1166667,2.1166667 0 0 0 0.017053,-0.24753 2.1166667,2.1166667 0 0 0 -2.1166664,-2.11667 z m 0,0.79375 -1.0583333,1.05833 H 2.38125 v 1.32292 h 1.0583333 v -1.32292 H 3.96875 Z m -2.09961345,1.07539 a 2.1166667,2.1166667 0 0 0 -0.0170532,0.24753 2.1166667,2.1166667 0 0 0 2.11666665,2.11666 2.1166667,2.1166667 0 0 0 1.9414836,-1.27899 l -0.2036053,-0.2036 a 1.8520833,1.8520833 0 0 1 -1.7378783,1.21801 1.8520833,1.8520833 0 0 1 -1.7998901,-1.42575 l 0.3219441,0.32194 0.1870687,-0.18707 -0.561206,-0.5612 z"
         style="fill:currentColor;stroke-width:0.26458332"
         class="ColorScheme-Text" />
    </g>
    <g
       transform="matrix(1.4545455,0,0,1.454546,0,-126.53346)"
       id="update-none">
      <rect
         ry="1.2988289e-06"
         y="291.17914"
         x="0"
         height="5.8208332"
         width="5.8208332"
         id="rect1396-6"
         style="opacity:0.003;fill:#000000;fill-opacity:1;stroke:none;stroke-width:0.10794999;stroke-miterlimit:4;stroke-dasharray:none;stroke-opacity:1" />
      <path
         style="opacity:1;fill:currentColor;fill-opacity:1;stroke-width:1.45454562"
         d="M 16,26 A 12,12 0 0 0 5.2773438,32.619141 L 6.0332031,33.375 A 10.999963,10.999963 0 0 1 16,27 10.999963,10.999963 0 0 1 27,38 10.999963,10.999963 0 0 1 26.972656,38.558594 L 24.414062,36 l -0.707031,0.707031 3.126953,3.126953 0.847657,0.847657 A 12,12 0 0 0 28,38 12,12 0 0 0 16,26 Z m 0,5 -6,6 h 3 v 7 h 6 v -7 h 3 z M 4.0429688,37.042969 A 12,12 0 0 0 4,38 12,12 0 0 0 16,50 12,12 0 0 0 25.984375,44.642578 L 25.259766,43.917969 A 10.999963,10.999963 0 0 1 16,49 10.999963,10.999963 0 0 1 5.1191406,39.533203 L 7.5859375,42 8.2929688,41.292969 5,38 Z"
         transform="matrix(0.18190104,0,0,0.18190097,0,287.17731)"
         id="path5-7"
         class="ColorScheme-Text"
         inkscape:connector-curvature="0" />
    </g>
    <g
       transform="matrix(1.4545455,0,0,1.454546,8.4666667,-126.53347)"
       id="update-high">
      <rect
         ry="1.2988289e-06"
         y="291.17914"
         x="0"
         height="5.8208332"
         width="5.8208332"
         id="rect1396-6-9"
         style="opacity:0.003;fill:#000000;fill-opacity:1;stroke:none;stroke-width:0.10794999;stroke-miterlimit:4;stroke-dasharray:none;stroke-opacity:1" />
      <path
         style="opacity:1;fill:currentColor;fill-opacity:1;stroke-width:1.45454562"
         d="M 48,26 A 12,12 0 0 0 37.277344,32.619141 L 38.033203,33.375 A 10.999963,10.999963 0 0 1 48,27 10.999963,10.999963 0 0 1 59,38 10.999963,10.999963 0 0 1 58.972656,38.558594 L 56.414062,36 l -0.707031,0.707031 3.126953,3.126953 0.847657,0.847657 A 12,12 0 0 0 60,38 12,12 0 0 0 48,26 Z m 0,5 -6,6 h 3 v 7 h 5.214844 A 5.4999629,5.4999629 0 0 1 51,42.34375 V 37 h 3 z M 36.042969,37.042969 A 12,12 0 0 0 36,38 12,12 0 0 0 48,50 12,12 0 0 0 51.650391,49.421875 5.4999629,5.4999629 0 0 1 50.951172,48.582031 10.999963,10.999963 0 0 1 48,49 10.999963,10.999963 0 0 1 37.119141,39.533203 L 39.585938,42 40.292969,41.292969 37,38 Z"
         transform="matrix(0.18190104,0,0,0.18190097,-5.8208332,287.17732)"
         id="path5-7-3"
         class="ColorScheme-Text"
         inkscape:connector-curvature="0" />
      <circle
         r="0.8185544"
         cy="295.45383"
         cx="4.2746739"
         id="circle848"
         style="fill:currentColor"
         class="ColorScheme-NegativeText" />
    </g>
    <g
       id="22-22-update-high">
      <rect
         ry="1.2988288e-06"
         y="291.17914"
         x="5.8208332"
         height="5.8208332"
         width="5.8208332"
         id="rect1396-3"
         style="opacity:0.003;fill:#000000;fill-opacity:1;stroke:none;stroke-width:0.10794998;stroke-miterlimit:4;stroke-dasharray:none;stroke-opacity:1" />
      <path
         id="path5-6"
         transform="matrix(0.26458333,0,0,0.26458333,0,291.17915)"
         d="m 33,3 a 8.0000001,8.0000001 0 0 0 -7.337891,4.8339844 l 0.769532,0.7695312 A 6.9999999,6.9999999 0 0 1 33,4 6.9999999,6.9999999 0 0 1 39.802734,9.3886719 L 38.707031,8.2929688 38,9 l 2,2 0.935547,0.935547 A 8.0000001,8.0000001 0 0 0 41,11 8.0000001,8.0000001 0 0 0 33,3 Z m 0,3 -4,4 h 2 v 5 h 3.132812 A 3.9999453,3.9999705 0 0 1 35,13.361328 V 10 h 2 z m -7.935547,4.064453 A 8.0000001,8.0000001 0 0 0 25,11 8.0000001,8.0000001 0 0 0 33,19 8.0000001,8.0000001 0 0 0 35.068359,18.716797 3.9999453,3.9999705 0 0 1 34.451172,17.84375 6.9999999,6.9999999 0 0 1 33,18 6.9999999,6.9999999 0 0 1 26.197266,12.611328 l 1.216796,1.216797 0.707032,-0.707031 L 26,11 Z"
         style="fill:currentColor;stroke-width:0.99999994"
         inkscape:connector-curvature="0"
         class="ColorScheme-Text" />
      <ellipse
         ry="0.79375452"
         rx="0.79374945"
         cy="295.41248"
         cx="10.054167"
         id="path997-6"
         style="opacity:1;fill:currentColor;fill-opacity:1;stroke:none;stroke-width:0.6350016;stroke-miterlimit:4;stroke-dasharray:none;stroke-opacity:1"
         class="ColorScheme-NegativeText" />
    </g>
    <g
       transform="translate(5.8208335,1.1816406e-5)"
       id="22-22-update-medium">
      <rect
         ry="1.2988288e-06"
         y="291.17914"
         x="5.8208332"
         height="5.8208332"
         width="5.8208332"
         id="rect1396-3-1"
         style="opacity:0.003;fill:#000000;fill-opacity:1;stroke:none;stroke-width:0.10794998;stroke-miterlimit:4;stroke-dasharray:none;stroke-opacity:1" />
      <path
         id="path5-6-8"
         transform="matrix(0.26458333,0,0,0.26458333,0,291.17915)"
         d="m 33,3 a 8.0000001,8.0000001 0 0 0 -7.337891,4.8339844 l 0.769532,0.7695312 A 6.9999999,6.9999999 0 0 1 33,4 6.9999999,6.9999999 0 0 1 39.802734,9.3886719 L 38.707031,8.2929688 38,9 l 2,2 0.935547,0.935547 A 8.0000001,8.0000001 0 0 0 41,11 8.0000001,8.0000001 0 0 0 33,3 Z m 0,3 -4,4 h 2 v 5 h 3.132812 A 3.9999453,3.9999705 0 0 1 35,13.361328 V 10 h 2 z m -7.935547,4.064453 A 8.0000001,8.0000001 0 0 0 25,11 8.0000001,8.0000001 0 0 0 33,19 8.0000001,8.0000001 0 0 0 35.068359,18.716797 3.9999453,3.9999705 0 0 1 34.451172,17.84375 6.9999999,6.9999999 0 0 1 33,18 6.9999999,6.9999999 0 0 1 26.197266,12.611328 l 1.216796,1.216797 0.707032,-0.707031 L 26,11 Z"
         style="fill:currentColor;stroke-width:0.99999994"
         inkscape:connector-curvature="0"
         class="ColorScheme-Text" />
      <ellipse
         ry="0.79375452"
         rx="0.79374945"
         cy="295.41248"
         cx="10.054167"
         id="path997-6-7"
         style="opacity:1;fill:currentColor"
         class="ColorScheme-NeutralText" />
    </g>
    <g
       transform="translate(11.641667,1.1816406e-5)"
       id="22-22-update-low">
      <rect
         ry="1.2988288e-06"
         y="291.17914"
         x="5.8208332"
         height="5.8208332"
         width="5.8208332"
         id="rect1396-3-2"
         style="opacity:0.003;fill:#000000;fill-opacity:1;stroke:none;stroke-width:0.10794998;stroke-miterlimit:4;stroke-dasharray:none;stroke-opacity:1" />
      <path
         id="path5-6-0"
         transform="matrix(0.26458333,0,0,0.26458333,0,291.17915)"
         d="m 33,3 a 8.0000001,8.0000001 0 0 0 -7.337891,4.8339844 l 0.769532,0.7695312 A 6.9999999,6.9999999 0 0 1 33,4 6.9999999,6.9999999 0 0 1 39.802734,9.3886719 L 38.707031,8.2929688 38,9 l 2,2 0.935547,0.935547 A 8.0000001,8.0000001 0 0 0 41,11 8.0000001,8.0000001 0 0 0 33,3 Z m 0,3 -4,4 h 2 v 5 h 3.132812 A 3.9999453,3.9999705 0 0 1 35,13.361328 V 10 h 2 z m -7.935547,4.064453 A 8.0000001,8.0000001 0 0 0 25,11 8.0000001,8.0000001 0 0 0 33,19 8.0000001,8.0000001 0 0 0 35.068359,18.716797 3.9999453,3.9999705 0 0 1 34.451172,17.84375 6.9999999,6.9999999 0 0 1 33,18 6.9999999,6.9999999 0 0 1 26.197266,12.611328 l 1.216796,1.216797 0.707032,-0.707031 L 26,11 Z"
         style="fill:currentColor;stroke-width:0.99999994"
         inkscape:connector-curvature="0"
         class="ColorScheme-Text" />
      <ellipse
         ry="0.79375452"
         rx="0.79374945"
         cy="295.41248"
         cx="10.054167"
         id="path997-6-2"
         style="opacity:1;fill:currentColor"
         class="ColorScheme-ButtonFocus" />
    </g>
    <ellipse
       style="opacity:0;fill:#000000;fill-opacity:1;stroke:none;stroke-width:0.10794999;stroke-miterlimit:4;stroke-dasharray:none;stroke-opacity:1"
       id="path844"
       cx="14.684375"
       cy="303.08539"
       rx="0.92604166"
       ry="1.0583333" />
    <g
       transform="matrix(1.4545455,0,0,1.454546,16.933333,-126.53347)"
       id="update-medium">
      <rect
         ry="1.2988289e-06"
         y="291.17914"
         x="0"
         height="5.8208332"
         width="5.8208332"
         id="rect1396-6-9-6"
         style="opacity:0.003;fill:#000000;fill-opacity:1;stroke:none;stroke-width:0.10794999;stroke-miterlimit:4;stroke-dasharray:none;stroke-opacity:1" />
      <path
         style="opacity:1;fill:currentColor;fill-opacity:1;stroke-width:1.45454562"
         d="M 48,26 A 12,12 0 0 0 37.277344,32.619141 L 38.033203,33.375 A 10.999963,10.999963 0 0 1 48,27 10.999963,10.999963 0 0 1 59,38 10.999963,10.999963 0 0 1 58.972656,38.558594 L 56.414062,36 l -0.707031,0.707031 3.126953,3.126953 0.847657,0.847657 A 12,12 0 0 0 60,38 12,12 0 0 0 48,26 Z m 0,5 -6,6 h 3 v 7 h 5.214844 A 5.4999629,5.4999629 0 0 1 51,42.34375 V 37 h 3 z M 36.042969,37.042969 A 12,12 0 0 0 36,38 12,12 0 0 0 48,50 12,12 0 0 0 51.650391,49.421875 5.4999629,5.4999629 0 0 1 50.951172,48.582031 10.999963,10.999963 0 0 1 48,49 10.999963,10.999963 0 0 1 37.119141,39.533203 L 39.585938,42 40.292969,41.292969 37,38 Z"
         transform="matrix(0.18190104,0,0,0.18190097,-5.8208332,287.17732)"
         id="path5-7-3-2"
         class="ColorScheme-Text"
         inkscape:connector-curvature="0" />
      <circle
         r="0.8185544"
         cy="295.45383"
         cx="4.2746739"
         id="circle848-9"
         style="fill:currentColor"
         class="ColorScheme-NeutralText" />
    </g>
    <g
       transform="matrix(1.4545455,0,0,1.454546,25.4,-126.53347)"
       id="update-low">
      <rect
         ry="1.2988289e-06"
         y="291.17914"
         x="0"
         height="5.8208332"
         width="5.8208332"
         id="rect1396-6-9-2"
         style="opacity:0.003;fill:#000000;fill-opacity:1;stroke:none;stroke-width:0.10794999;stroke-miterlimit:4;stroke-dasharray:none;stroke-opacity:1" />
      <path
         style="opacity:1;fill:currentColor;fill-opacity:1;stroke-width:1.45454562"
         d="M 48,26 A 12,12 0 0 0 37.277344,32.619141 L 38.033203,33.375 A 10.999963,10.999963 0 0 1 48,27 10.999963,10.999963 0 0 1 59,38 10.999963,10.999963 0 0 1 58.972656,38.558594 L 56.414062,36 l -0.707031,0.707031 3.126953,3.126953 0.847657,0.847657 A 12,12 0 0 0 60,38 12,12 0 0 0 48,26 Z m 0,5 -6,6 h 3 v 7 h 5.214844 A 5.4999629,5.4999629 0 0 1 51,42.34375 V 37 h 3 z M 36.042969,37.042969 A 12,12 0 0 0 36,38 12,12 0 0 0 48,50 12,12 0 0 0 51.650391,49.421875 5.4999629,5.4999629 0 0 1 50.951172,48.582031 10.999963,10.999963 0 0 1 48,49 10.999963,10.999963 0 0 1 37.119141,39.533203 L 39.585938,42 40.292969,41.292969 37,38 Z"
         transform="matrix(0.18190104,0,0,0.18190097,-5.8208332,287.17732)"
         id="path5-7-3-7"
         class="ColorScheme-Text"
         inkscape:connector-curvature="0" />
      <circle
         r="0.8185544"
         cy="295.45383"
         cx="4.2746739"
         id="circle848-0"
         style="fill:currentColor"
         class="ColorScheme-ButtonFocus" />
    </g>
  </g>
</svg>
