<?xml version="1.0" encoding="UTF-8" standalone="no"?>
<!-- Created with Inkscape (http://www.inkscape.org/) -->

<svg
   xmlns:dc="http://purl.org/dc/elements/1.1/"
   xmlns:cc="http://creativecommons.org/ns#"
   xmlns:rdf="http://www.w3.org/1999/02/22-rdf-syntax-ns#"
   xmlns:svg="http://www.w3.org/2000/svg"
   xmlns="http://www.w3.org/2000/svg"
   xmlns:sodipodi="http://sodipodi.sourceforge.net/DTD/sodipodi-0.dtd"
   xmlns:inkscape="http://www.inkscape.org/namespaces/inkscape"
   width="22"
   height="22"
   viewBox="0 0 5.8208332 5.8208335"
   version="1.1"
   id="svg846"
   inkscape:version="0.92.4 5da689c313, 2019-01-14"
   sodipodi:docname="update.svg">
  <defs
     id="defs840" />
  <sodipodi:namedview
     id="base"
     pagecolor="#ffffff"
     bordercolor="#666666"
     borderopacity="1.0"
     inkscape:pageopacity="0.0"
     inkscape:pageshadow="2"
     inkscape:zoom="3.959798"
     inkscape:cx="105.39699"
     inkscape:cy="9.4818845"
     inkscape:document-units="px"
     inkscape:current-layer="layer1"
     showgrid="true"
     units="px"
     inkscape:window-width="1440"
     inkscape:window-height="833"
     inkscape:window-x="0"
     inkscape:window-y="0"
     inkscape:window-maximized="1"
     inkscape:snap-smooth-nodes="true"
     inkscape:snap-intersection-paths="true"
     inkscape:object-paths="true"
     inkscape:snap-midpoints="true">
    <inkscape:grid
       type="xygrid"
       id="grid1394" />
  </sodipodi:namedview>
  <metadata
     id="metadata843">
    <rdf:RDF>
      <cc:Work
         rdf:about="">
        <dc:format>image/svg+xml</dc:format>
        <dc:type
           rdf:resource="http://purl.org/dc/dcmitype/StillImage" />
        <dc:title />
      </cc:Work>
    </rdf:RDF>
  </metadata>
  <style
     id="current-color-scheme"
     type="text/css">
      .ColorScheme-Text {
        color:#7B7C7E;
      }
      .ColorScheme-Background{
        color:#EFF0F1;
      }
      .ColorScheme-Highlight{
        color:#3DAEE6;
      }
      .ColorScheme-ViewText {
        color:#7B7C7E;
      }
      .ColorScheme-ViewBackground{
        color:#FCFCFC;
      }
      .ColorScheme-ViewHover {
        color:#3DAEE6;
      }
      .ColorScheme-ViewFocus{
        color:#1E92FF;
      }
      .ColorScheme-ButtonText {
        color:#7B7C7E;
      }
      .ColorScheme-ButtonBackground{
        color:#EFF0F1;
      }
      .ColorScheme-ButtonHover {
        color:#3DAEE6;
      }
      .ColorScheme-ButtonFocus{
        color:#1E92FF;
      }
     .ColorScheme-NegativeText {
            color:#da4453;
        }
      .ColorScheme-NeutralText {
        color:#f67400;
      }
</style>
  <g
     inkscape:label="Layer 1"
     inkscape:groupmode="layer"
     id="layer1"
     transform="translate(0,-291.17915)">
    <g
       id="22-22-update-none">
      <rect
         ry="1.2988289e-06"
         y="291.17914"
         x="0"
         height="5.8208332"
         width="5.8208332"
         id="rect1396"
         style="opacity:0.003;fill:#000000;fill-opacity:1;stroke:none;stroke-width:0.10794999;stroke-miterlimit:4;stroke-dasharray:none;stroke-opacity:1" />
      <path
         style="fill:currentColor;stroke-width:0.99999994"
         d="M 10.513672,3.015625 C 7.7814962,3.1843169 5.291126,4.7487746 3.9667969,7.2070312 L 4.6660156,8.0410156 C 5.9089072,5.3780739 8.6815247,3.7748335 11.609375,4.0273438 c 3.229089,0.2868661 5.840164,2.753139 6.308594,5.9609374 l -0.996094,-1.1875 -0.765625,0.6425782 1.816406,2.1660156 0.851563,1.013672 c 0.06665,-0.305764 0.114106,-0.614424 0.144531,-0.925781 C 19.353846,7.295779 16.098744,3.4163461 11.697266,3.03125 11.299848,2.9969508 10.903983,2.9915262 10.513672,3.015625 Z M 11,6 7,10 h 2 v 5 h 4 v -5 h 2 z M 3.1757812,9.3769531 C 3.1091274,9.6827169 3.0616767,9.9913769 3.03125,10.302734 c -0.3850743,4.401449 2.8700212,8.28092 7.271484,8.666016 3.179343,0.274394 6.21695,-1.366345 7.730469,-4.175781 l -0.699219,-0.833985 c -1.242903,2.662942 -4.015519,4.266182 -6.943359,4.013672 C 7.1615467,17.68579 4.5504769,15.219479 4.0820312,12.011719 L 5.1894531,13.330078 5.9550781,12.6875 4.0273438,10.390625 Z"
         transform="matrix(0.26458333,0,0,0.26458333,0,291.17915)"
         id="path5"
         class="ColorScheme-Text"
         inkscape:connector-curvature="0" />
    </g>
    <g
       transform="matrix(1.4545455,0,0,1.454546,0,-126.53346)"
       id="update-none">
      <rect
         ry="1.2988289e-06"
         y="291.17914"
         x="0"
         height="5.8208332"
         width="5.8208332"
         id="rect1396-6"
         style="opacity:0.003;fill:#000000;fill-opacity:1;stroke:none;stroke-width:0.10794999;stroke-miterlimit:4;stroke-dasharray:none;stroke-opacity:1" />
      <path
         style="opacity:1;fill:currentColor;fill-opacity:1;stroke-width:1.45454562"
         d="M 15.677734,26.003906 C 11.465993,26.117522 7.5933574,28.440131 5.5214844,32.15625 l 0.7226562,0.789062 c 1.9669872,-3.800639 5.9606754,-6.116909 10.2363284,-5.935546 6.069371,0.264979 10.774796,5.401356 10.509765,11.470703 -0.01248,0.185815 -0.0308,0.37143 -0.05273,0.55664 l -2.443359,-2.667968 -0.738282,0.675781 2.988282,3.259766 0.808593,0.884765 c 0.244826,-0.869209 0.391281,-1.764096 0.435547,-2.666015 0.289092,-6.621131 -4.843727,-12.222661 -11.464843,-12.511719 -0.283379,-0.0123 -0.564921,-0.01539 -0.845704,-0.0078 z M 16,31 10,37 h 3 v 7 h 6 v -7 h 3 z M 4.0957031,36.521484 c -0.040912,0.316656 -0.068472,0.636004 -0.083984,0.955078 -0.2890935,6.621131 4.8437275,12.222661 11.4648432,12.511719 4.011095,0.172072 7.842879,-1.672547 10.208985,-4.916015 l -0.693359,-0.75586 c -2.154152,3.071012 -5.724829,4.833146 -9.472657,4.673828 C 10.046712,48.745596 5.5887129,44.509608 5.0625,39.056641 L 7.4199219,41.628906 8.15625,40.953125 5.0097656,37.519531 Z"
         transform="matrix(0.18190104,0,0,0.18190097,0,287.17731)"
         id="path5-7"
         class="ColorScheme-Text"
         inkscape:connector-curvature="0" />
    </g>
    <g
       transform="matrix(1.4545455,0,0,1.454546,8.4666667,-126.53347)"
       id="update-high">
      <rect
         ry="1.2988289e-06"
         y="291.17914"
         x="0"
         height="5.8208332"
         width="5.8208332"
         id="rect1396-6-9"
         style="opacity:0.003;fill:#000000;fill-opacity:1;stroke:none;stroke-width:0.10794999;stroke-miterlimit:4;stroke-dasharray:none;stroke-opacity:1" />
      <path
         style="opacity:1;fill:currentColor;fill-opacity:1;stroke-width:1.45454562"
         d="m 47.677734,26.003906 c -4.211741,0.113616 -8.084377,2.436225 -10.15625,6.152344 l 0.722657,0.789062 c 1.966987,-3.800639 5.960675,-6.116909 10.236328,-5.935546 6.069371,0.264979 10.774796,5.401356 10.509765,11.470703 -0.01248,0.185815 -0.0308,0.37143 -0.05273,0.55664 l -2.443359,-2.667968 -0.738282,0.675781 2.988282,3.259766 0.808593,0.884765 c 0.244826,-0.869209 0.391281,-1.764096 0.435547,-2.666015 0.289092,-6.621131 -4.843727,-12.222661 -11.464843,-12.511719 -0.283379,-0.0123 -0.564921,-0.01539 -0.845704,-0.0078 z M 48,31 42,37 h 3 v 7 h 5.214844 C 50.382088,43.407899 50.64748,42.848052 51,42.34375 V 37 h 3 z m -11.904297,5.521484 c -0.04091,0.316656 -0.06847,0.636004 -0.08398,0.955078 -0.289094,6.621131 4.843727,12.222661 11.464843,12.511719 1.238305,0.04948 2.476779,-0.08977 3.671876,-0.417969 -0.24896,-0.267178 -0.470886,-0.558037 -0.66211,-0.86914 -0.971191,0.230345 -1.969417,0.328095 -2.966797,0.289062 C 42.046712,48.745596 37.588713,44.509608 37.0625,39.056641 l 2.357422,2.572265 0.736328,-0.675781 -3.146484,-3.433594 z"
         transform="matrix(0.18190104,0,0,0.18190097,-5.8208332,287.17732)"
         id="path5-7-3"
         class="ColorScheme-Text"
         inkscape:connector-curvature="0" />
      <circle
         r="0.8185544"
         cy="295.45383"
         cx="4.2746739"
         id="circle848"
         style="fill:currentColor"
         class="ColorScheme-NegativeText" />
    </g>
    <g
       id="22-22-update-high">
      <rect
         ry="1.2988288e-06"
         y="291.17914"
         x="5.8208332"
         height="5.8208332"
         width="5.8208332"
         id="rect1396-3"
         style="opacity:0.003;fill:#000000;fill-opacity:1;stroke:none;stroke-width:0.10794998;stroke-miterlimit:4;stroke-dasharray:none;stroke-opacity:1" />
      <path
         style="fill:currentColor;stroke-width:0.99999994"
         d="m 32.513672,3.015625 c -2.732176,0.1686919 -5.222546,1.7331498 -6.546875,4.1914062 l 0.699219,0.8339844 c 1.242891,-2.6629415 4.015509,-4.2661821 6.943359,-4.0136718 3.22909,0.2868659 5.840163,2.7531392 6.308594,5.9609374 l -0.996094,-1.1875 -0.765625,0.6425782 1.816406,2.1679686 0.851563,1.013672 C 40.89089,12.319236 40.938325,12.008623 40.96875,11.697266 41.353846,7.2957784 38.098743,3.4163461 33.697266,3.03125 33.299848,2.9969508 32.903983,2.9915262 32.513672,3.015625 Z M 33,6 29,10 h 2 v 5 h 3.142578 C 34.301101,14.394394 34.599229,13.848546 35,13.388672 V 10 h 2 z m -7.824219,3.3769531 c -0.06665,0.3057638 -0.114106,0.6144246 -0.144531,0.9257809 -0.385074,4.401449 2.870021,8.282873 7.271484,8.667969 0.664301,0.05733 1.317748,0.01675 1.955078,-0.0918 -0.22309,-0.28812 -0.418997,-0.59568 -0.572265,-0.929687 -0.426146,0.04391 -0.856689,0.06319 -1.294922,0.02539 -3.229078,-0.286866 -5.840148,-2.753177 -6.308594,-5.960937 l 1.107422,1.318359 0.765625,-0.642578 -1.927734,-2.298828 z"
         transform="matrix(0.26458333,0,0,0.26458333,0,291.17915)"
         id="path5-3"
         class="ColorScheme-Text"
         inkscape:connector-curvature="0" />
      <ellipse
         ry="0.79375452"
         rx="0.79374945"
         cy="295.41248"
         cx="10.054167"
         id="path997-6"
         style="opacity:1;fill:currentColor;fill-opacity:1;stroke:none;stroke-width:0.6350016;stroke-miterlimit:4;stroke-dasharray:none;stroke-opacity:1"
         class="ColorScheme-NegativeText" />
    </g>
    <ellipse
       style="opacity:0;fill:#000000;fill-opacity:1;stroke:none;stroke-width:0.10794999;stroke-miterlimit:4;stroke-dasharray:none;stroke-opacity:1"
       id="path844"
       cx="14.684375"
       cy="303.08539"
       rx="0.92604166"
       ry="1.0583333" />
    <g
       id="update-medium">
      <rect
         ry="1.8892064e-06"
         y="296.99997"
         x="16.933332"
         height="8.46667"
         width="8.4666672"
         id="rect1396-6-9-6"
         style="opacity:0.003;fill:#000000;fill-opacity:1;stroke:none;stroke-width:0.1570182;stroke-miterlimit:4;stroke-dasharray:none;stroke-opacity:1" />
      <ellipse
         ry="1.1906251"
         rx="1.1906246"
         cy="303.21771"
         cx="23.151041"
         id="circle848-9"
         style="fill:currentColor;stroke-width:1.45454574"
         class="ColorScheme-NeutralText" />
      <path
         id="path5-7-3-9"
         d="m 21.081401,298.05935 c -1.114357,0.0301 -2.138992,0.64458 -2.687175,1.6278 l 0.191203,0.20878 c 0.520432,-1.00559 1.577096,-1.61844 2.708362,-1.57045 1.605854,0.0701 2.850831,1.42911 2.780709,3.03496 -0.0033,0.0492 -0.0082,0.0983 -0.01395,0.14727 l -0.646472,-0.7059 -0.195338,0.1788 0.79065,0.86248 0.21394,0.2341 c 0.06478,-0.22998 0.103527,-0.46675 0.115239,-0.70538 0.07649,-1.75185 -1.28157,-3.23392 -3.033407,-3.3104 -0.07498,-0.003 -0.149468,-0.004 -0.223759,-0.002 z m 0.08527,1.32188 -1.5875,1.5875 h 0.79375 v 1.85208 h 1.379761 c 0.04425,-0.15666 0.114468,-0.30478 0.207739,-0.43821 v -1.41387 h 0.79375 z m -3.149679,1.46089 c -0.01082,0.0838 -0.01812,0.16828 -0.02222,0.2527 -0.07649,1.75184 1.28157,3.23391 3.033406,3.31039 0.327635,0.0131 0.655315,-0.0238 0.971518,-0.11059 -0.06587,-0.0707 -0.124589,-0.14764 -0.175184,-0.22996 -0.256961,0.061 -0.521075,0.0868 -0.784965,0.0765 -1.448017,-0.0647 -2.62753,-1.18549 -2.766757,-2.62826 l 0.623735,0.68058 0.19482,-0.1788 -0.832507,-0.90847 z"
         style="opacity:1;fill:currentColor;fill-opacity:1;stroke-width:0.38484854"
         inkscape:connector-curvature="0"
         class="ColorScheme-Text" />
    </g>
    <g
       id="update-low">
      <rect
         ry="1.8892064e-06"
         y="296.99997"
         x="25.4"
         height="8.46667"
         width="8.4666672"
         id="rect1396-6-9-2"
         style="opacity:0.003;fill:#000000;fill-opacity:1;stroke:none;stroke-width:0.1570182;stroke-miterlimit:4;stroke-dasharray:none;stroke-opacity:1" />
      <ellipse
         ry="1.1906251"
         rx="1.1906246"
         cy="303.21771"
         cx="31.617708"
         id="circle848-0"
         style="fill:currentColor;stroke-width:1.45454574"
         class="ColorScheme-ButtonFocus" />
      <path
         id="path5-7-3-3"
         d="m 29.548063,298.05935 c -1.114356,0.0301 -2.138991,0.64458 -2.687174,1.6278 l 0.191203,0.20878 c 0.520432,-1.00559 1.577095,-1.61844 2.708361,-1.57045 1.605855,0.0701 2.850832,1.42911 2.780709,3.03496 -0.0033,0.0492 -0.0082,0.0983 -0.01395,0.14727 l -0.646472,-0.7059 -0.195337,0.1788 0.790649,0.86248 0.213941,0.2341 c 0.06478,-0.22998 0.103526,-0.46675 0.115238,-0.70538 0.07649,-1.75185 -1.281569,-3.23392 -3.033406,-3.3104 -0.07498,-0.003 -0.149469,-0.004 -0.223759,-0.002 z m 0.08527,1.32188 -1.5875,1.5875 h 0.79375 v 1.85208 h 1.379761 c 0.04425,-0.15666 0.114468,-0.30478 0.207739,-0.43821 v -1.41387 h 0.79375 z m -3.149678,1.46089 c -0.01083,0.0838 -0.01812,0.16828 -0.02222,0.2527 -0.07649,1.75184 1.281569,3.23391 3.033406,3.31039 0.327635,0.0131 0.655315,-0.0238 0.971517,-0.11059 -0.06587,-0.0707 -0.124588,-0.14764 -0.175183,-0.22996 -0.256961,0.061 -0.521075,0.0868 -0.784965,0.0765 -1.448018,-0.0647 -2.62753,-1.18549 -2.766757,-2.62826 l 0.623734,0.68058 0.194821,-0.1788 -0.832508,-0.90847 z"
         style="opacity:1;fill:currentColor;fill-opacity:1;stroke-width:0.38484854"
         inkscape:connector-curvature="0"
         class="ColorScheme-Text" />
    </g>
    <g
       id="22-22-update-medium">
      <rect
         ry="1.2988288e-06"
         y="291.17914"
         x="11.641666"
         height="5.8208332"
         width="5.8208332"
         id="rect1396-3-1"
         style="opacity:0.003;fill:#000000;fill-opacity:1;stroke:none;stroke-width:0.10794998;stroke-miterlimit:4;stroke-dasharray:none;stroke-opacity:1" />
      <ellipse
         ry="0.79375452"
         rx="0.79374945"
         cy="295.41248"
         cx="15.875"
         id="path997-6-7"
         style="opacity:1;fill:currentColor"
         class="ColorScheme-NeutralText" />
      <path
         inkscape:connector-curvature="0"
         class="ColorScheme-Text"
         id="path5-3-74"
         d="m 14.423408,291.97704 c -0.722888,0.0446 -1.381798,0.45856 -1.732193,1.10897 l 0.185001,0.22066 c 0.328849,-0.70457 1.062437,-1.12876 1.837097,-1.06195 0.854364,0.0759 1.54521,0.72843 1.669149,1.57716 l -0.26355,-0.31419 -0.202571,0.17002 0.48059,0.5736 0.22531,0.26821 c 0.01764,-0.0809 0.03019,-0.16309 0.03824,-0.24547 0.10189,-1.16456 -0.759356,-2.19099 -1.923914,-2.29288 -0.10515,-0.009 -0.209889,-0.0105 -0.313159,-0.004 z m 0.128675,0.78961 -1.058333,1.05833 h 0.529166 v 1.32292 h 0.831474 c 0.04194,-0.16023 0.120822,-0.30465 0.226859,-0.42633 v -0.89659 h 0.529167 z m -2.070158,0.89349 c -0.01763,0.0809 -0.03019,0.16256 -0.03824,0.24494 -0.101884,1.16455 0.75936,2.19151 1.923914,2.2934 0.175763,0.0152 0.348654,0.004 0.517281,-0.0243 -0.05903,-0.0762 -0.11086,-0.1576 -0.151412,-0.24598 -0.112751,0.0116 -0.226666,0.0167 -0.342615,0.007 -0.85436,-0.0759 -1.545206,-0.72844 -1.669149,-1.57716 l 0.293006,0.34881 0.202571,-0.17001 -0.510046,-0.60823 z"
         style="fill:currentColor;stroke-width:0.26458332" />
    </g>
    <g
       id="22-22-update-low">
      <rect
         ry="1.2988288e-06"
         y="291.17914"
         x="17.4625"
         height="5.8208332"
         width="5.8208332"
         id="rect1396-3-2"
         style="opacity:0.003;fill:#000000;fill-opacity:1;stroke:none;stroke-width:0.10794998;stroke-miterlimit:4;stroke-dasharray:none;stroke-opacity:1" />
      <ellipse
         ry="0.79375452"
         rx="0.79374945"
         cy="295.41248"
         cx="21.695833"
         id="path997-6-2"
         style="opacity:1;fill:currentColor"
         class="ColorScheme-ButtonFocus" />
      <path
         inkscape:connector-curvature="0"
         class="ColorScheme-Text"
         id="path5-3-5"
         d="m 20.244243,291.97704 c -0.722888,0.0446 -1.381799,0.45856 -1.732194,1.10897 l 0.185002,0.22066 c 0.328848,-0.70457 1.062436,-1.12876 1.837097,-1.06195 0.854363,0.0759 1.54521,0.72843 1.669149,1.57716 l -0.26355,-0.31419 -0.202572,0.17002 0.480591,0.5736 0.225309,0.26821 c 0.01764,-0.0809 0.03019,-0.16309 0.03824,-0.24547 0.10189,-1.16456 -0.759356,-2.19099 -1.923913,-2.29288 -0.10515,-0.009 -0.20989,-0.0105 -0.313159,-0.004 z m 0.128674,0.78961 -1.058333,1.05833 h 0.529167 v 1.32292 h 0.831473 c 0.04194,-0.16023 0.120823,-0.30465 0.22686,-0.42633 v -0.89659 h 0.529167 z m -2.070158,0.89349 c -0.01763,0.0809 -0.03019,0.16256 -0.03824,0.24494 -0.101884,1.16455 0.75936,2.19151 1.923913,2.2934 0.175763,0.0152 0.348655,0.004 0.517281,-0.0243 -0.05903,-0.0762 -0.110859,-0.1576 -0.151411,-0.24598 -0.112752,0.0116 -0.226666,0.0167 -0.342615,0.007 -0.85436,-0.0759 -1.545206,-0.72844 -1.669149,-1.57716 l 0.293005,0.34881 0.202572,-0.17001 -0.510046,-0.60823 z"
         style="fill:currentColor;stroke-width:0.26458332" />
    </g>
  </g>
</svg>
